<svg clip-rule="evenodd" fill-rule="evenodd" stroke-linejoin="round" stroke-miterlimit="2" viewBox="0 0 82 82" xmlns="http://www.w3.org/2000/svg"><circle cx="40.987" cy="40.987" fill="#ececec" r="40.987"/><g fill-rule="nonzero"><path d="m31.789 57.201c-2.904 1.707-5.6 3.247-8.246 4.873-.768.471-1.33.482-2.1.003-2.388-1.486-4.814-2.913-7.265-4.292-.703-.395-.9-.861-.889-1.629.043-2.891.063-5.782.018-8.67-.014-.814.299-1.225.95-1.598 2.724-1.561 5.425-3.169 8.325-4.872-1.914-1.134-3.666-2.174-5.421-3.21-1.033-.61-2.104-1.163-3.086-1.849-.355-.247-.703-.798-.712-1.216-.058-3.08-.054-6.16 0-9.239.006-.394.31-.94.638-1.141 2.628-1.598 5.283-3.15 7.963-4.66.296-.166.858-.104 1.177.073 2.415 1.365 4.8 2.785 7.197 4.187.413.242.829.48 1.377.796.031-.472.072-.789.072-1.105.004-2.929.022-5.857-.012-8.784-.007-.678.149-1.108.769-1.458 2.61-1.477 5.179-3.027 7.796-4.493.339-.189.955-.21 1.286-.025 2.641 1.496 5.26 3.037 7.846 4.633.348.214.653.813.66 1.239.054 3.264.029 6.533.029 9.994.51-.276.896-.47 1.269-.687 2.458-1.443 4.904-2.91 7.384-4.31.33-.187.932-.201 1.258-.018 2.675 1.514 5.327 3.07 7.951 4.677.326.199.614.761.618 1.157.036 3.041-.02 6.084 0 9.127.004.672-.244 1.01-.798 1.326-2.345 1.337-4.665 2.721-6.992 4.09-.44.258-.873.528-1.478.894 2.581 1.52 4.942 3.036 7.421 4.321 1.452.752 2.027 1.628 1.901 3.326-.186 2.529-.09 5.08-.061 7.623.009.729-.18 1.149-.847 1.522-2.517 1.408-5.006 2.878-7.473 4.38-.631.385-1.1.377-1.718.005-2.44-1.477-4.904-2.906-7.361-4.35-.283-.168-.575-.32-1.004-.556-.027.478-.066.832-.067 1.186-.005 2.929-.021 5.858.013 8.784.009.66-.205 1.022-.767 1.342-2.605 1.486-5.173 3.041-7.791 4.501-.358.199-1.018.176-1.382-.03-2.547-1.435-5.04-2.969-7.583-4.412-.641-.363-.892-.759-.881-1.511.041-3.228.016-6.458.016-9.944zm36.093-.788c0-2.964-.027-5.692.018-8.417.013-.778-.209-1.221-.896-1.619-5.645-3.269-11.268-6.584-16.894-9.888-.302-.176-.587-.377-1.007-.649 6.22-3.658 12.28-7.222 18.451-10.85-2.642-1.55-5.119-3.023-7.624-4.447-.254-.144-.733-.125-.993.023-2.922 1.688-5.82 3.416-8.729 5.128-3.124 1.84-6.251 3.672-9.616 5.649v-21.742c-2.53 1.493-4.841 2.89-7.192 4.214-.65.365-.861.773-.856 1.518.04 6.577.038 13.155.049 19.735v1.403c-6.26-3.672-12.316-7.225-18.524-10.867 0 2.982.028 5.748-.019 8.512-.013.759.252 1.141.885 1.504 3.931 2.264 7.838 4.573 11.751 6.871 2.03 1.191 4.056 2.391 6.202 3.655-6.191 3.645-12.265 7.218-18.476 10.874 2.482 1.463 4.769 2.752 6.988 4.149.809.51 1.386.48 2.199-.007 5.631-3.369 11.299-6.68 16.957-10.005.205-.118.434-.191.833-.365v21.593c2.577-1.502 5.021-2.892 7.415-4.359.311-.191.542-.783.544-1.189.034-6.656.027-13.308.027-19.964v-1.317c6.222 3.649 12.246 7.184 18.507 10.857z" fill="#0c5ff3"/><path d="m31.789 57.201h.773v-1.363l-1.16.682zm-8.246 4.873.398.674.001-.001zm-2.1.003.403-.671zm-7.265-4.292-.374.688zm-.889-1.629-.772-.012zm.018-8.67.772-.012v-.001zm.95-1.598.379.686v-.001zm8.325-4.872.386.681 1.154-.678-1.152-.683zm-5.421-3.21-.387.68zm-3.086-1.849.437-.649h-.001zm-.712-1.216-.772.015v.002zm0-9.239.772.014zm.638-1.141-.396-.675-.003.002zm7.963-4.66-.374-.688zm1.177.073.375-.687-.003-.001zm7.197 4.187.385-.681zm1.377.796-.381.684 1.069.615.082-1.246zm.072-1.105-.772-.001v.001zm-.012-8.784-.772.008v.002zm.769-1.458.374.688.001-.001zm7.796-4.493-.372-.689zm1.286-.025.374-.686-.002-.002zm7.846 4.633.4-.673zm.66 1.239-.772.012zm.029 9.994h-.772v1.311l1.135-.616zm1.269-.687.384.682.002-.002zm7.384-4.31.374.688.002-.001zm1.258-.018.374-.687-.001-.002zm7.951 4.677-.398.674h.001zm.618 1.157-.772.009zm0 9.127-.772.005zm-.798 1.326.378.686zm-6.992 4.09.386.681v-.001zm-1.478.894-.395-.676-1.132.685 1.14.671zm7.421 4.321.351-.701zm1.901 3.326-.77-.059zm-.061 7.623-.772.008v.001zm-.847 1.522-.371-.69v.001zm-7.473 4.38.397.675zm-1.718.005-.395.676h.001zm-7.361-4.35-.388.68h.002zm-1.004-.556.367-.692-1.069-.587-.069 1.234zm-.067 1.186-.773-.005v.004zm.013 8.784-.773.009v.002zm-.767 1.342-.376-.686zm-7.791 4.501.371.69zm-1.382-.03.375-.687zm-7.583-4.412-.376.687zm-.881-1.511.773.013v-.003zm36.109-10.732-.386.682 1.159.679v-1.361zm.018-8.417-.773-.014v.001zm-.896-1.619-.383.683v.001zm-16.894-9.888.385-.681h-.001zm-1.007-.649-.386-.681-1.102.649 1.073.695zm18.451-10.85.386.681 1.159-.682-1.16-.68zm-7.624-4.447.377-.687h-.001zm-.993.023-.378-.686-.003.002zm-8.729 5.128-.387-.681zm-9.616 5.649h-.772v1.362l1.158-.681zm0-21.742h.773v-1.365l-1.161.685zm-7.192 4.214-.374-.688h-.001zm-.856 1.518-.772.005zm.049 19.735h.773v-.002zm0 1.403-.386.681 1.159.679v-1.36zm-18.524-10.867.385-.68-1.158-.68v1.36zm-.019 8.512.772.015v-.001zm.885 1.504.38-.684zm11.751 6.871-.386.681zm6.202 3.655.386.681 1.156-.68-1.155-.681zm-18.476 10.874-.387-.681-1.155.68 1.155.681zm6.988 4.149.407-.669h-.001zm2.199-.007-.392-.677zm16.957-10.005-.383-.682-.003.002zm.833-.365h.773v-1.191l-1.075.467zm0 21.593h-.772v1.357l1.156-.674zm7.415-4.359-.398-.674zm.544-1.189.772.004zm.027-21.281.385-.681-1.157-.679v1.36zm-17.973 10.964c-2.893 1.701-5.604 3.251-8.258 4.881l.798 1.346c2.638-1.62 5.318-3.152 8.234-4.866zm-8.258 4.881c-.319.195-.513.244-.654.245-.139.001-.33-.044-.644-.24l-.807 1.341c.457.284.932.474 1.459.471.524-.002.994-.195 1.443-.47zm-1.298.005c-2.399-1.493-4.835-2.925-7.294-4.308l-.748 1.375c2.443 1.374 4.859 2.795 7.236 4.274zm-7.294-4.308c-.265-.149-.358-.268-.403-.355-.05-.097-.093-.255-.088-.576l-1.544-.023c-.007.447.044.906.265 1.333.228.437.584.75 1.022.996zm-.491-.931c.043-2.893.063-5.794.018-8.693l-1.545.024c.045 2.876.025 5.759-.017 8.646zm.018-8.694c-.005-.299.05-.441.105-.528.061-.097.179-.216.452-.371l-.757-1.372c-.38.217-.743.491-.997.896-.262.416-.356.886-.348 1.401zm.557-.9c2.729-1.564 5.437-3.176 8.332-4.876l-.772-1.362c-2.906 1.707-5.598 3.309-8.318 4.868zm8.334-6.237c-1.913-1.133-3.666-2.174-5.421-3.21l-.775 1.36c1.753 1.036 3.504 2.075 5.419 3.21zm-5.421-3.21c-1.085-.641-2.086-1.153-3.037-1.818l-.874 1.297c1.013.707 2.154 1.301 3.136 1.881zm-3.038-1.818c-.068-.048-.173-.156-.262-.305-.042-.07-.073-.136-.092-.192-.01-.026-.015-.048-.018-.065-.004-.016-.004-.023-.004-.023l-1.544.035c.008.399.167.779.339 1.065.176.293.422.583.709.783zm-.376-.583c-.058-3.069-.053-6.138 0-9.209l-1.544-.028c-.054 3.088-.059 6.177 0 9.268zm0-9.209s0-.002.001-.007c.001-.004.001-.011.003-.019.002-.016.008-.038.016-.064.017-.054.043-.116.078-.178.035-.063.073-.117.109-.158.037-.042.059-.056.058-.056l-.798-1.346c-.316.194-.556.503-.712.784-.157.28-.293.646-.299 1.016zm.262-.48c2.621-1.594 5.268-3.142 7.941-4.647l-.748-1.376c-2.687 1.514-5.349 3.071-7.985 4.673zm7.941-4.646c-.03.016-.034.011.003.006.033-.006.083-.008.144-.004.134.011.242.048.284.072l.744-1.378c-.277-.155-.609-.238-.91-.261-.286-.022-.676-.001-1.013.188zm.428.072c2.408 1.361 4.783 2.775 7.187 4.181l.77-1.363c-2.39-1.398-4.786-2.824-7.207-4.193zm7.186 4.18c.417.245.837.484 1.382.799l.761-1.369c-.551-.317-.961-.552-1.372-.792zm2.533.168c.028-.408.074-.809.074-1.158h-1.544c0 .283-.035.517-.071 1.051zm.074-1.156c.004-2.924.023-5.862-.011-8.794l-1.545.018c.034 2.919.015 5.839.012 8.773zm-.011-8.794c-.003-.287.032-.419.068-.494.028-.057.09-.149.302-.268l-.749-1.375c-.408.23-.733.529-.936.942-.194.398-.234.82-.23 1.211zm.371-.763c2.668-1.51 5.146-3.007 7.794-4.49l-.745-1.379c-2.585 1.449-5.247 3.051-7.799 4.495zm7.794-4.49c.007-.004.038-.019.097-.033.056-.013.124-.021.195-.024.07-.001.134.004.184.014.053.011.071.021.064.017l.745-1.377c-.329-.185-.717-.233-1.03-.226-.317.008-.689.077-1 .25zm.537-.028c2.634 1.492 5.244 3.027 7.821 4.618l.801-1.345c-2.594-1.601-5.222-3.147-7.872-4.646zm7.821 4.618c-.002-.002.021.013.061.061.038.046.079.106.116.178.083.157.111.289.112.34l1.544-.026c-.006-.374-.134-.754-.293-1.056-.156-.298-.403-.634-.739-.842zm.289.579c.054 3.257.029 6.514.029 9.982h1.545c0-3.453.024-6.734-.03-10.008zm1.164 10.677c.482-.261.905-.476 1.29-.7l-.767-1.365c-.361.211-.711.385-1.25.677zm1.292-.702c2.466-1.447 4.9-2.907 7.372-4.302l-.749-1.376c-2.487 1.404-4.946 2.879-7.395 4.317zm7.374-4.303s.001-.001.005-.003c.004-.001.01-.004.017-.007.016-.005.036-.012.062-.017.052-.013.116-.021.184-.021.067-.002.129.004.177.014.051.01.069.021.064.017l.746-1.377c-.323-.181-.704-.232-1.014-.227-.312.006-.682.071-.994.248zm.506-.018c2.668 1.51 5.313 3.062 7.929 4.664l.796-1.347c-2.631-1.612-5.292-3.174-7.975-4.691zm7.93 4.664c-.009-.004.008.004.043.046.032.039.069.093.103.156.034.065.059.129.076.187.018.059.02.095.021.103l1.544-.018c-.004-.362-.128-.727-.28-1.014-.148-.282-.385-.608-.713-.808zm.243.492c.036 3.064-.021 6.027 0 9.123l1.544-.011c-.019-2.99.036-6.113 0-9.13zm0 9.123c.002.234-.041.324-.068.367-.034.055-.111.14-.335.268l.755 1.372c.329-.188.653-.43.881-.791.234-.373.314-.788.311-1.227zm-.403.635c-2.351 1.341-4.68 2.729-7.002 4.095l.773 1.361c2.333-1.372 4.645-2.75 6.984-4.084zm-7.001 4.094c-.446.262-.894.541-1.487.9l.79 1.351c.615-.371 1.035-.633 1.469-.888zm-1.479 2.256c2.547 1.5 4.954 3.044 7.459 4.341l.7-1.401c-2.455-1.272-4.77-2.76-7.385-4.301zm7.458 4.341c.663.344 1.026.666 1.23 1.012.2.34.306.803.251 1.555l1.54.118c.07-.947-.047-1.77-.467-2.481-.414-.704-1.064-1.196-1.853-1.605zm1.481 2.567c-.19 2.574-.092 5.178-.063 7.69l1.545-.018c-.03-2.571-.125-5.07.058-7.554zm-.063 7.691c.004.302-.037.436-.076.51-.036.067-.116.172-.37.313l.743 1.379c.414-.231.761-.523.985-.941.218-.412.268-.854.263-1.28zm-.446.824c-2.529 1.414-5.026 2.889-7.499 4.394l.794 1.35c2.461-1.498 4.941-2.964 7.448-4.366zm-7.499 4.394c-.243.148-.38.175-.466.175-.087 0-.222-.027-.461-.171l-.788 1.352c.378.229.788.392 1.247.392.461 0 .874-.162 1.262-.398zm-.927.004c-2.444-1.48-4.917-2.913-7.369-4.355l-.772 1.361c2.462 1.448 4.918 2.873 7.352 4.346zm-7.368-4.355c-.297-.175-.613-.341-1.024-.567l-.734 1.384c.446.245.714.385.983.544zm-2.162.08c-.024.422-.067.848-.069 1.226l1.545.011c.002-.331.036-.614.066-1.148zm-.069 1.23c-.004 2.924-.021 5.861.013 8.794l1.545-.018c-.033-2.92-.018-5.841-.013-8.773zm.013 8.796c.003.244-.035.343-.063.391-.028.049-.095.133-.307.254l.754 1.372c.349-.199.67-.456.886-.832.218-.378.281-.79.275-1.207zm-.37.645c-2.641 1.505-5.161 3.033-7.787 4.498l.743 1.379c2.613-1.457 5.227-3.038 7.798-4.505zm-7.786 4.498c.002-.001-.005.002-.021.008-.016.005-.038.011-.067.017-.058.011-.131.017-.21.016-.175-.005-.298-.046-.338-.069l-.75 1.375c.324.183.713.257 1.049.265.332.009.737-.043 1.079-.233zm-.636-.028c-1.267-.714-2.52-1.453-3.781-2.196-1.258-.743-2.523-1.49-3.801-2.215l-.752 1.373c1.264.717 2.518 1.458 3.778 2.203 1.259.743 2.526 1.489 3.807 2.21zm-7.582-4.411c-.259-.147-.355-.254-.399-.331-.043-.07-.09-.196-.085-.481l-1.545-.025c-.007.466.066.915.307 1.32.238.4.588.673.97.89zm-.484-.815c.041-3.234.016-6.477.016-9.954h-1.545c0 3.494.025 6.712-.016 9.934zm36.109-10.742c0-2.975-.027-5.687.017-8.404l-1.545-.026c-.044 2.733-.017 5.476-.017 8.43zm.017-8.403c.008-.463-.051-.922-.282-1.346-.231-.427-.587-.728-1.005-.97l-.764 1.367c.27.156.369.275.418.363.049.092.094.243.088.558zm-1.287-2.316c-5.642-3.268-11.261-6.581-16.89-9.886l-.772 1.362c5.625 3.303 11.251 6.62 16.898 9.89zm-16.891-9.886c-.282-.166-.523-.338-.976-.631l-.83 1.326c.386.25.716.481 1.037.668zm-1.005.713c6.22-3.658 12.281-7.222 18.451-10.85l-.772-1.362c-6.171 3.628-12.231 7.192-18.451 10.85zm18.45-12.212c-2.636-1.548-5.122-3.025-7.632-4.453l-.753 1.373c2.498 1.422 4.967 2.889 7.614 4.442zm-7.633-4.453c-.294-.166-.632-.204-.891-.197-.264.007-.583.065-.856.221l.756 1.372c-.013.007-.006.001.028-.007.031-.007.071-.013.115-.014.043-.001.079.002.103.007.028.004.021.008-.007-.008zm-1.75.026c-2.926 1.689-5.831 3.422-8.735 5.131l.774 1.361c2.914-1.715 5.805-3.439 8.724-5.125zm-8.735 5.131c-3.124 1.841-6.249 3.67-9.615 5.649l.772 1.362c3.364-1.976 6.492-3.809 9.617-5.65zm-8.456 6.33v-21.742h-1.545v21.742zm-1.161-22.422c-2.538 1.498-4.836 2.887-7.178 4.206l.747 1.376c2.361-1.329 4.686-2.734 7.206-4.222zm-7.179 4.206c-.398.224-.744.507-.971.918-.226.407-.286.85-.282 1.293l1.544-.01c-.002-.302.042-.436.083-.51.039-.07.123-.174.375-.315zm-1.253 2.211c.04 6.575.037 13.149.049 19.731l1.545-.003c-.012-6.578-.009-13.158-.05-19.739zm.049 19.73v1.403h1.545v-1.403zm1.158.722c-6.261-3.672-12.316-7.225-18.525-10.866l-.772 1.362c6.209 3.642 12.265 7.194 18.525 10.866zm-19.683-10.186c0 2.993.029 5.744-.018 8.499l1.544.027c.048-2.773.019-5.555.019-8.526zm-.018 8.498c-.008.476.069.925.316 1.329.241.395.592.662.962.874l.759-1.369c-.264-.151-.362-.257-.408-.334-.041-.067-.089-.188-.085-.471zm1.277 2.203c3.927 2.262 7.829 4.568 11.745 6.867l.771-1.362c-3.91-2.297-7.821-4.608-11.756-6.874zm11.745 6.867c2.03 1.191 4.053 2.389 6.2 3.655l.775-1.361c-2.144-1.263-4.172-2.465-6.204-3.656zm6.201 2.294c-6.191 3.644-12.264 7.217-18.476 10.873l.774 1.361c6.21-3.655 12.285-7.229 18.475-10.873zm-18.476 12.234c2.499 1.473 4.762 2.748 6.969 4.138l.812-1.338c-2.231-1.405-4.542-2.707-7.007-4.16zm6.969 4.138c.478.301.97.494 1.514.487.536-.007 1.02-.208 1.483-.485l-.784-1.355c-.35.21-.562.266-.719.269-.15.001-.351-.045-.681-.254zm2.997.002c5.628-3.368 11.291-6.676 16.951-10.002l-.772-1.361c-5.656 3.322-11.328 6.635-16.963 10.008zm16.948-9.999c.056-.033.124-.065.251-.117.118-.049.295-.118.503-.209l-.606-1.447c-.193.084-.331.138-.478.199-.138.057-.286.121-.436.208zm-.322-1.049v21.593h1.545v-21.593zm1.156 22.276c2.567-1.497 5.026-2.895 7.43-4.369l-.797-1.347c-2.385 1.461-4.814 2.844-7.401 4.351zm7.43-4.369c.355-.217.573-.587.695-.868.13-.301.221-.657.222-.99l-1.545-.009c0 .075-.027.217-.09.362-.029.068-.059.118-.083.151-.027.035-.029.027.004.007zm.917-1.858c.034-6.658.027-13.314.027-19.968h-1.544c0 6.657.006 13.307-.028 19.96zm.027-19.968v-1.317h-1.544v1.317zm-1.157-.635c6.222 3.649 12.246 7.183 18.506 10.857l.772-1.362c-6.26-3.675-12.286-7.209-18.508-10.858z" fill="#0c5ff3"/><path d="m67.882 56.414c-6.26-3.674-12.284-7.209-18.506-10.859v1.317c-.003 6.654.006 13.308-.027 19.962-.003.408-.232 1-.544 1.189-2.397 1.468-4.839 2.858-7.415 4.36v-21.593c-.398.174-.629.247-.833.366-5.659 3.324-11.326 6.634-16.957 10.004-.814.487-1.391.517-2.199.007-2.222-1.395-4.507-2.686-6.989-4.15 6.214-3.655 12.285-7.228 18.478-10.875-2.145-1.264-4.171-2.464-6.202-3.655-3.912-2.298-7.819-4.608-11.75-6.87-.633-.364-.899-.746-.885-1.505.045-2.762.016-5.526.016-8.507 6.209 3.642 12.265 7.192 18.524 10.866v-1.403c-.01-6.578-.008-13.157-.049-19.735-.005-.745.205-1.152.856-1.518 2.352-1.323 4.661-2.721 7.192-4.211v21.742c3.366-1.975 6.492-3.809 9.616-5.65 2.909-1.712 5.807-3.442 8.73-5.127.258-.149.738-.167.992-.023 2.505 1.424 4.983 2.896 7.625 4.446-6.169 3.629-12.231 7.193-18.451 10.851.419.272.707.473 1.006.649 5.627 3.303 11.247 6.616 16.894 9.887.685.398.907.84.896 1.619-.045 2.723-.018 5.451-.018 8.416z" fill="#1ed1cf"/></g></svg>